PathFileType	4	(X/Y/Z)	c:\Git\powerlifing_model_clean\simulations\HC835B\Session1\HC835B_CUT_0005\marker_experimental.trc
DataRate	CameraRate	NumFrames	NumMarkers	Units	OrigDataRate	OrigDataStartFrame	OrigNumFrames
240.000000	240.000000	4	38	mm	240.000000	18	75
Frame#	Time	RPSI			LPSI			RASI			LASI			RTH1			RTH2			RTH3			RTH4			RSK1			RSK2			RSK3			RSK4			RCAL1			RCAL2			RCAL3			RST			RPT			RTN			RFMB			RSMB			RVMB			RFMH			RSMH			RVMH			RPM			LTH1			LTH2			LTH3			LTH4			LSK1			LSK2			LSK3			LSK4			LCAL1			LCAL2			LCAL3			LFMH			LVMH			
		X1	Y1	Z1	X2	Y2	Z2	X3	Y3	Z3	X4	Y4	Z4	X5	Y5	Z5	X6	Y6	Z6	X7	Y7	Z7	X8	Y8	Z8	X9	Y9	Z9	X10	Y10	Z10	X11	Y11	Z11	X12	Y12	Z12	X13	Y13	Z13	X14	Y14	Z14	X15	Y15	Z15	X16	Y16	Z16	X17	Y17	Z17	X18	Y18	Z18	X19	Y19	Z19	X20	Y20	Z20	X21	Y21	Z21	X22	Y22	Z22	X23	Y23	Z23	X24	Y24	Z24	X25	Y25	Z25	X26	Y26	Z26	X27	Y27	Z27	X28	Y28	Z28	X29	Y29	Z29	X30	Y30	Z30	X31	Y31	Z31	X32	Y32	Z32	X33	Y33	Z33	X34	Y34	Z34	X35	Y35	Z35	X36	Y36	Z36	X37	Y37	Z37	X38	Y38	Z38	

19	0.075	218.2593078613282	1031.315063476563	-102.7456283569336	124.2767715454102	1012.546752929688	-54.376522064209	193.5585021972657	989.4847412109377	-315.7206115722657	-5.989801406860352	931.984069824219	-203.9895629882813	355.7853393554688	775.5303955078127	-384.4077148437501	320.4255371093751	778.5250244140627	-433.7808837890626	355.2427673339844	708.3895263671876	-435.7813110351564	312.5180664062501	704.6476440429689	-475.8148193359376	515.2095336914064	304.4900512695313	-495.7989196777345	493.6339416503907	292.9202270507813	-552.3430175781251	526.7888793945314	252.6214752197266	-520.6612548828126	496.6871032714845	237.0040588378907	-570.4843750000001	567.8423461914064	101.630615234375	-476.1575317382814	546.9583129882814	56.43343353271486	-471.632537841797	605.2039794921876	74.92601013183595	-493.4842834472657	504.5310363769532	58.49580764770509	-530.9379882812501	599.7618408203126	85.59758758544923	-557.1434326171876	490.8302307128907	77.09495544433595	-587.8474121093751	487.9840393066407	63.29226684570314	-621.6365356445314	520.1137084960939	98.9662780761719	-646.2365112304689	601.8132324218751	61.13176345825197	-602.4025878906251	477.0870056152345	41.92279434204102	-672.2441406250001	517.0902709960939	65.12519836425783	-704.6588134765626	591.1686401367189	46.73574829101563	-682.0854492187501	494.9847106933595	45.64882278442384	-759.8247680664064	72.25037384033205	617.4696655273439	-110.6731643676758	47.98567962646485	602.4356689453126	-164.2917785644532	90.10555267333986	538.2273559570314	-137.8674621582032	79.12597656250001	529.5469970703126	-197.7353973388672	284.4344177246094	473.3414916992189	98.01264190673831	300.1864624023438	424.351287841797	112.412956237793	314.4513549804688	460.1028442382814	143.9191284179688	343.7677612304688	412.2424621582032	148.6956939697266	412.8397216796876	541.3585815429689	242.7441558837891	401.9070434570314	538.0100708007814	289.2183837890626	454.1203613281251	549.9889526367189	264.6256713867188	521.2836914062501	338.3451843261719	258.7239990234376	433.6133117675782	350.5713806152344	324.7904968261719	
20	0.07916666666666666	215.8942565917969	1028.109252929688	-123.5891952514649	122.4811706542969	1008.602355957031	-74.08794403076173	189.4507751464844	987.5490722656252	-337.4918212890626	-9.939017295837404	929.3795166015627	-222.0707550048829	351.6907348632813	771.9211425781252	-404.160614013672	315.4151306152344	773.3299560546877	-453.0799560546876	351.2589721679688	703.6515502929689	-454.0782165527345	308.2398376464844	698.8133544921876	-493.7896423339845	513.9301147460939	297.8614807128907	-504.8308715820314	492.4047851562501	284.7637329101563	-561.0813598632814	526.1054077148439	245.6624603271485	-528.5799560546876	496.0450134277345	228.4322814941407	-577.7854614257814	571.6171875000001	99.02839660644534	-480.1665344238282	549.6851806640626	54.26993942260744	-474.2016906738282	608.7440185546876	71.07663726806642	-496.3514404296876	506.2049865722657	55.83234786987306	-533.7504882812501	604.6196289062501	80.7454299926758	-560.0664062500001	494.012420654297	73.22008514404298	-591.3463134765626	491.8581848144532	62.15281677246095	-625.5354614257814	525.3560791015626	96.52353668212893	-648.3630981445314	606.9182739257814	56.99585723876955	-604.0557250976564	483.700897216797	43.70084381103516	-675.5904541015626	523.7128295898439	63.96926116943361	-707.7155151367189	598.2445068359376	44.81722640991212	-684.1661987304689	499.5804138183595	41.2878761291504	-761.6133422851564	65.58457946777345	612.9230346679689	-135.784423828125	40.33325958251954	599.5272827148439	-189.4035949707032	82.22883605957033	534.1235961914064	-164.9337005615235	69.12414550781251	527.6496582031251	-224.3695526123047	273.9803771972657	472.8853149414064	65.10105895996095	290.7279357910157	424.6010742187501	79.90209197998048	304.5643310546876	460.629608154297	110.9422912597657	334.6416931152344	413.5557556152345	116.1258087158203	402.7886352539064	544.3768920898439	208.9739685058594	392.3696899414064	541.1401367187501	255.4567413330079	444.2134094238282	553.4479980468751	230.4387207031251	513.2740478515626	342.4812927246094	224.2136688232422	426.141815185547	353.9443664550782	291.2110900878907	
21	0.08333333333333333	213.7642822265626	1024.925415039063	-143.9929809570313	120.9236679077149	1004.511962890625	-93.70492553710939	185.3776245117188	985.4290161132815	-358.9616394042969	-13.70601463317871	926.5234375000002	-240.1945800781251	348.4358520507813	768.0279541015627	-423.6758117675782	310.8438720703126	767.8076782226564	-471.5158081054689	347.5456237792969	698.5580444335939	-471.8791809082032	304.2108154296876	692.5025024414064	-511.0439453125001	513.3945922851564	292.4507446289063	-512.5850830078126	492.8345031738282	277.3957214355469	-568.7852172851564	527.2513427734376	240.0195007324219	-534.9991455078126	497.7944335937501	220.6899871826172	-584.0830078125001	578.4389038085939	96.75069427490237	-483.8260803222657	554.4983520507814	53.40732574462892	-475.8507385253907	613.1790161132814	65.66531372070314	-498.7827758789064	510.1680908203126	54.85705184936525	-534.8975219726564	612.1920776367189	74.88864898681642	-562.6812744140626	498.9266662597657	71.64223480224611	-593.2595825195314	496.9415588378907	61.89616012573244	-627.8319091796876	532.9234619140626	93.02398681640626	-649.1578369140626	612.6801147460939	50.67897033691408	-606.1006469726564	488.0954895019532	45.37026977539063	-678.1436767578126	529.2831420898439	61.7222366333008	-710.5540771484376	604.7825317382814	39.47476196289063	-685.1802368164064	503.5097656250001	39.17639160156251	-764.0421752929689	58.69429016113283	608.6423950195314	-160.9572296142578	32.5031852722168	596.9163818359376	-214.4689483642579	73.9659881591797	530.2041625976564	-192.0644226074219	60.00042724609376	524.8630981445314	-251.4155273437501	263.4928588867188	472.0640563964845	32.05863952636719	281.2492675781251	424.0792846679689	47.04739379882813	294.7867431640626	460.6378479003907	77.68271636962892	325.6017456054688	414.3601074218751	83.24978637695314	393.0454711914064	546.6144409179689	175.0131072998047	383.0406494140626	543.3489379882814	221.6678314208985	434.5604553222657	555.9921264648439	196.0843353271485	505.2144470214845	345.5810241699219	188.9121856689453	418.693328857422	356.3377685546876	256.8626098632813	
22	0.08749999999999999	211.8105010986329	1021.786499023438	-164.105712890625	119.5224609375	1000.396911621094	-113.0156784057617	181.5067443847657	983.174011230469	-380.0078735351563	-17.36972045898438	923.5938110351565	-258.3623657226563	345.7224731445313	763.9102783203126	-442.8338928222657	306.3811950683594	761.7205810546876	-489.183074951172	344.2843627929688	693.1185913085939	-489.1041259765626	300.4488830566407	685.9434814453126	-527.4916381835939	513.7484130859376	289.8141174316407	-518.6820068359376	494.9431152343751	272.3229064941407	-574.7788696289064	529.9753417968751	237.2570037841797	-539.2323608398439	502.0515441894532	215.4273834228516	-587.8088989257814	585.3317260742189	94.72310638427736	-484.8133239746095	559.4121704101564	52.68106079101564	-476.1523437500001	618.7047119140626	61.89891052246095	-499.2159118652345	514.9473266601564	54.98320388793947	-534.3908081054689	617.2624511718751	71.42879486083986	-563.3355712890626	503.5727844238282	70.86766052246095	-593.2218017578126	501.1247863769532	62.43866348266603	-627.6407470703126	538.0499877929689	92.24533843994142	-649.0798950195314	617.7196655273439	47.72246551513673	-607.0566406250001	490.701385498047	45.89415359497071	-678.0120849609376	532.0526733398439	60.17091751098634	-710.9716796875001	607.6024780273439	37.67113876342774	-685.8446655273439	504.8238830566407	38.70368194580079	-763.9678955078126	51.56465911865236	604.8907470703126	-186.2181396484375	24.65397834777833	594.3059082031251	-239.7515716552735	65.29898071289064	526.7373046875001	-219.1091003417969	50.65480422973634	522.7861328125001	-278.4462280273438	253.1271667480469	470.6285400390626	-1.229581832885742	271.7929382324219	423.2206420898439	13.99874973297119	285.1437683105469	460.2139892578126	44.14408111572266	316.6869812011719	414.2837829589845	49.63837814331056	383.7605590820313	547.9072875976564	140.880859375	374.2471618652344	544.3191528320314	187.61328125	425.3438720703126	557.4240112304689	161.5218658447266	497.2421875000001	347.6645507812501	152.8899536132813	411.3669433593751	357.5382080078126	221.8718261718751	
